<svg xmlns="http://www.w3.org/2000/svg" width="1000" height="1000" viewBox="0 0 1000 1000">
  <defs>
    <style>
      .cls-1 {
        fill: #cad2c5;
      }

      .cls-1, .cls-2 {
        stroke: #2f3e46;
        stroke-linejoin: round;
        stroke-width: 24px;
      }

      .cls-1, .cls-2, .cls-3 {
        fill-rule: evenodd;
      }

      .cls-2 {
        fill: #84a98c;
      }

      .cls-3 {
        fill: #fff;
      }
    </style>
  </defs>
  <path id="Rectangle_2_copy" data-name="Rectangle 2 copy" class="cls-1" d="M6.863,122.864H996.777V966.022H6.863V122.864Z"/>
  <path class="cls-2" d="M6.863,37.025H915.092V880.183H6.863V37.025Z"/>
  <path id="the_book_haven." data-name="the book haven." class="cls-3" d="M136.324,332.725h33V152.746h34.5v-30H101.828v30h34.5V332.725Zm101.392,0h33V238.236h35.4v94.489h33V122.75h-33v85.49h-35.4V122.75h-33V332.725Zm143.987,0h89.989v-30H414.7V238.236h45.294v-30H414.7V152.746h56.993v-30H381.7V332.725ZM110.527,563.474h51.894c33,0,50.094-17.4,50.094-49.794v-18c0-22.2-6.9-37.8-24.6-43.794v-0.6c14.7-6,21.3-19.5,21.3-41.1v-8.4c0-32.4-14.7-48.295-48.894-48.295H110.527V563.474Zm33-124.485V383.5h15.9c11.7,0,16.8,6.6,16.8,21.6v11.7c0,16.8-7.5,22.2-19.8,22.2h-12.9Zm0,94.489V468.985h14.7c15,0,21.3,6,21.3,25.5v18.3c0,15.6-6,20.7-17.1,20.7h-18.9Zm153.884,33c32.4,0,50.094-19.2,50.094-52.794V403.293c0-33.6-17.7-52.793-50.094-52.793s-50.094,19.2-50.094,52.793V513.68C247.313,547.276,265.011,566.474,297.407,566.474Zm0-30c-10.5,0-17.1-5.7-17.1-20.7V401.194c0-15,6.6-20.7,17.1-20.7s17.1,5.7,17.1,20.7V515.78C314.505,530.778,307.906,536.477,297.407,536.477Zm137.986,30c32.4,0,50.094-19.2,50.094-52.794V403.293c0-33.6-17.7-52.793-50.094-52.793S385.3,369.7,385.3,403.293V513.68C385.3,547.276,403,566.474,435.393,566.474Zm0-30c-10.5,0-17.1-5.7-17.1-20.7V401.194c0-15,6.6-20.7,17.1-20.7s17.1,5.7,17.1,20.7V515.78C452.491,530.778,445.892,536.477,435.393,536.477Zm90.292,27h33V496.582l13.2-26.7,27.9,93.589h34.5l-39.9-132.884,39.3-77.091h-33l-41.995,88.49V353.5h-33V563.474ZM110.527,794.223h33V699.735h35.4v94.488h33V584.249h-33v85.489h-35.4V584.249h-33V794.223Zm135.288,0h30.6l6-41.095h37.5v-0.6l6,41.695h33l-34.2-209.974H280.011Zm40.5-69.591,14.4-103.788h0.6l14.7,103.788h-29.7ZM407.5,794.223h43.8l31.8-209.974h-30.3l-21.6,162.88h-0.6L409,584.249H375.7Zm109.488,0h89.989v-30H549.98V699.735h45.294v-30H549.98V614.245h56.993v-30H516.984V794.223Zm126.886,0h29.4V640.942h0.6l39.6,153.281h33.9V584.249h-29.4V709.934h-0.6l-32.1-125.685H643.87V794.223Zm146.083,0h31.8v-31.8h-31.8v31.8Z"/>
</svg>
